PathFileType	3	(X/Y/Z)	D:\minhoCalibration\240510\subject3_KPNP\preferred\preferred05.trc
DataRate	CameraRate	NumFrames	NumMarkers	Units	OrigDataRate	OrigDataStartFrame	OrigNumFrames
200.0	200.0	12	10	mm	200.0	149	126	
Frame#	Time	Left_Ankle_Outer1			Left_Ankle_Inner1			Left_Knee_Outer1			Left_Knee_Inner1			Left_Wrist1			Right_Wrist1			Right_Knee_Inner1			Right_Knee_Outer1			Right_Ankle_Inner1			Right_Ankle_Outer1			
		X1	Y1	Z1	X2	Y2	Z2	X3	Y3	Z3	X4	Y4	Z4	X5	Y5	Z5	X6	Y6	Z6	X7	Y7	Z7	X8	Y8	Z8	X9	Y9	Z9	X10	Y10	Z10	
149	0.735	-347.32416	114.34106	-534.25311	-400.55228	126.25721	-515.65063	-212.71375	525.47113	-435.31442	-292.25412	531.68909	-373.92697	-182.20396	916.55212	-593.66803	-472.00452	1082.839	-422.16272	-316.5556	907.82544	-64.700699	-404.19025	978.94519	-71.631584	-393.14767	694.80975	278.80164	-484.49112	739.02972	280.93594
150	0.74	-346.44318	113.78082	-535.47382	-400.41708	125.18026	-516.72064	-213.4995	525.10406	-436.9422	-293.43628	531.09796	-375.49344	-181.76958	918.14703	-591.31927	-476.45825	1078.9075	-422.74857	-319.84512	897.45831	-65.795723	-408.6767	969.41174	-71.063713	-400.53491	669.88898	267.57364	-492.50345	713.42267	269.10168
151	0.745	-346.8905	112.20658	-535.81403	-400.3168	123.97861	-517.80597	-214.52985	524.76904	-438.18143	-295.16858	530.11719	-377.46811	-181.31187	919.50354	-588.82959	-480.80731	1074.7418	-423.43359	-323.14978	887.06116	-67.134689	-413.15842	959.31696	-70.878059	-407.40387	645.11371	253.6954	-500.23318	687.53259	255.83601
152	0.75	-346.7215	110.95986	-536.69354	-400.08862	122.70644	-518.95148	-215.75339	524.21649	-439.11514	-297.34351	529.41107	-379.46585	-180.75275	920.78021	-586.33673	-485.07364	1070.2186	-424.16193	-326.42682	876.80536	-68.713326	-417.51419	949.00696	-71.016457	-417.7272	619.32739	242.32515	-507.9671	661.53833	241.35979
153	0.755	-345.4469	110.25664	-538.11981	-399.8251	121.45951	-520.19159	-216.83768	523.70038	-439.85507	-299.71588	527.99524	-382.88474	-180.46381	921.74463	-583.68164	-489.12225	1065.5256	-424.92896	-329.78217	866.79297	-70.570755	-422.33398	937.92285	-71.628838	-427.73318	593.64526	229.83952	-515.55011	635.5022	225.48515
154	0.76	-346.0531	108.28652	-538.43439	-399.5683	120.13095	-521.38885	-218.33702	522.95233	-440.28806	-302.39188	526.93433	-384.98389	-180.02629	922.61383	-581.15869	-493.07602	1060.5839	-425.53265	-333.1524	857.04169	-72.68782	-427.31491	926.80792	-72.635681	-434.61816	569.52026	212.78137	-523.073	609.3595	208.47763
155	0.765	-345.15845	107.54745	-539.45605	-399.311	118.67022	-522.68658	-219.68613	522.24445	-440.63177	-305.09772	525.7569	-387.16168	-179.63229	923.17932	-578.74512	-496.88275	1055.4612	-426.23999	-336.56958	847.47693	-75.186821	-432.20758	915.42993	-74.526505	-441.21573	544.75629	194.92554	-530.41156	583.59723	190.04803
156	0.77	-345.2706	106.13145	-539.73743	-399.02563	117.28794	-523.94855	-220.81538	521.48682	-440.78342	-307.82388	524.56787	-389.27084	-179.63089	923.28137	-576.44427	-500.4682	1050.1641	-426.86276	-339.992	838.15222	-78.060211	-437.66055	904.06927	-76.637573	-447.49387	520.73248	176.13632	-537.55188	558.44373	170.73708
157	0.775	-344.82986	104.72104	-540.72351	-398.80994	115.87123	-525.00385	-222.63281	520.66217	-440.60699	-310.45364	523.34894	-391.27859	-179.2998	923.47705	-574.27057	-503.7688	1044.5677	-427.67252	-343.54965	828.94788	-81.222137	-442.95279	892.6059	-79.587074	-448.35632	498.57385	150.05498	-544.08563	533.56018	149.92747
158	0.78	-343.73984	104.019	-541.90686	-398.65869	114.47697	-526.11707	-223.55782	519.5799	-440.93121	-313.0144	522.11963	-393.10989	-179.26711	923.32446	-572.12952	-506.57022	1038.782	-429.08545	-347.40298	819.71869	-84.617416	-448.74182	880.77795	-82.708267	-455.08496	474.9097	130.16776	-550.57373	509.51447	128.54779
159	0.785	-344.47336	102.02384	-542.17834	-398.65231	113.13879	-527.08026	-225.25516	518.84961	-440.43781	-315.48987	520.89307	-394.9133	-179.22835	922.86084	-570.19421	-509.71603	1033.2405	-430.03909	-351.53198	810.27057	-88.032646	-454.89737	868.53693	-86.197693	-460.06329	453.75079	109.29536	-556.74939	485.81744	105.87788
160	0.79	-344.38297	101.08505	-542.53467	-398.64816	111.76987	-527.96625	-226.44846	518.00677	-440.31299	-317.83432	519.79218	-396.45724	-179.12909	922.37714	-568.27002	-512.31091	1027.6931	-431.86087	-356.24249	800.17712	-91.209274	-461.30109	855.74597	-90.044579	-465.81369	431.42606	87.137856	-562.57837	462.88376	82.195374
